<?xml version="1.0" standalone="no"?>
<!DOCTYPE svg PUBLIC "-//W3C//DTD SVG 20010904//EN"
 "http://www.w3.org/TR/2001/REC-SVG-20010904/DTD/svg10.dtd">
<svg version="1.0" xmlns="http://www.w3.org/2000/svg"
 width="512.000000pt" height="512.000000pt" viewBox="0 0 512.000000 512.000000"
 preserveAspectRatio="xMidYMid meet">
<metadata>
Created by potrace 1.14, written by Peter Selinger 2001-2017
</metadata>
<g transform="translate(0.000000,512.000000) scale(0.100000,-0.100000)"
fill="#000000" stroke="none">
<path d="M899 5073 c-26 -16 -50 -47 -150 -199 -229 -344 -398 -708 -522
-1124 -27 -90 -74 -277 -83 -326 -3 -16 -7 -36 -9 -44 -2 -8 -7 -31 -10 -50
-3 -19 -8 -43 -11 -53 -3 -10 -7 -30 -9 -45 -4 -31 -13 -85 -20 -122 -3 -14
-7 -43 -10 -65 -2 -21 -9 -73 -14 -115 -14 -107 -20 -163 -27 -255 -3 -44 -7
-93 -9 -110 -17 -150 -25 -770 -11 -880 63 -491 342 -911 803 -1209 56 -36
105 -66 107 -66 3 0 27 -13 53 -28 119 -69 359 -164 548 -217 179 -50 353 -84
530 -104 50 -6 110 -13 135 -17 71 -9 587 -12 665 -4 39 4 104 10 145 14 41 3
86 8 100 11 14 2 45 6 70 9 135 15 400 79 574 138 458 155 849 426 1079 748
154 218 263 502 285 749 12 137 4 705 -13 881 -2 19 -6 71 -9 115 -4 44 -9
100 -12 125 -8 67 -25 200 -30 240 -7 44 -41 247 -48 280 -3 14 -11 50 -17 80
-24 122 -83 334 -135 488 -117 349 -261 640 -471 955 -119 177 -149 208 -205
202 -36 -3 -51 -12 -331 -207 -512 -356 -729 -579 -818 -842 l-27 -81 -39 1
c-21 1 -85 5 -143 10 -178 14 -564 7 -661 -12 -24 -5 -27 -1 -43 57 -18 66
-74 192 -88 197 -4 2 -8 8 -8 14 0 17 -106 151 -178 224 -147 149 -314 280
-671 529 -181 127 -211 139 -262 108z m252 -359 c85 -59 156 -110 159 -113 3
-3 41 -33 85 -66 335 -253 497 -464 521 -680 15 -137 37 -146 294 -120 110 12
156 14 325 15 165 0 271 -4 350 -15 191 -26 240 -24 275 10 29 28 35 47 44
130 15 140 112 296 284 455 62 58 312 252 410 319 11 8 71 50 133 93 61 43
114 78 118 78 15 -1 206 -310 249 -402 9 -21 20 -38 24 -38 5 0 8 -5 8 -12 0
-7 20 -53 44 -103 106 -216 213 -525 281 -815 29 -121 67 -326 80 -430 4 -30
9 -62 10 -70 1 -8 6 -44 10 -80 3 -36 8 -76 10 -90 2 -14 7 -70 10 -125 4 -55
8 -114 10 -132 7 -61 17 -389 17 -558 0 -170 -6 -264 -22 -340 -5 -22 -11 -54
-14 -72 -11 -62 -69 -209 -119 -305 -246 -467 -786 -811 -1472 -937 -146 -27
-161 -30 -225 -37 -30 -3 -71 -7 -90 -10 -77 -9 -232 -16 -360 -17 -139 -1
-440 10 -462 18 -7 2 -38 6 -68 10 -86 9 -129 16 -210 32 -41 8 -86 17 -100
19 -68 13 -294 76 -335 93 -11 5 -58 24 -105 42 -629 242 -1032 710 -1096
1269 -11 100 -4 624 11 790 2 19 6 78 10 130 3 52 8 106 10 120 2 14 7 54 10
90 4 36 9 73 11 84 2 10 6 44 9 75 4 31 8 63 10 71 3 8 7 33 11 55 71 476 252
996 482 1390 19 33 40 69 46 80 40 73 142 215 152 211 6 -2 81 -53 165 -112z"/>
<path d="M1583 2898 c-236 -40 -352 -303 -221 -498 156 -232 514 -175 590 95
63 221 -140 443 -369 403z m106 -222 c65 -34 81 -113 33 -167 -23 -25 -38 -33
-79 -36 -47 -5 -52 -3 -87 31 -54 55 -47 127 16 166 39 24 78 25 117 6z"/>
<path d="M3410 2898 c-72 -11 -132 -41 -185 -93 -66 -65 -89 -123 -89 -225 -1
-75 3 -92 28 -143 59 -115 166 -180 298 -180 66 0 86 4 142 32 71 35 122 87
158 160 33 66 32 196 -1 264 -64 131 -207 206 -351 185z m102 -219 c77 -36 81
-156 6 -195 -76 -39 -166 6 -170 86 -2 44 2 56 20 78 34 39 98 53 144 31z"/>
<path d="M1943 2162 c-24 -4 -72 -48 -74 -68 -1 -8 -1 -23 -1 -34 0 -11 0 -27
1 -35 1 -13 73 -100 178 -215 17 -19 40 -44 50 -56 63 -73 155 -176 198 -222
l49 -54 1 -312 c0 -283 2 -315 18 -340 35 -54 109 -62 159 -17 l33 29 2 301 1
301 234 280 c128 154 237 291 242 304 14 37 -4 95 -37 120 -28 20 -37 21 -530
21 -276 0 -512 -1 -524 -3z m750 -226 c-4 -8 -22 -29 -38 -48 -17 -18 -40 -45
-51 -60 -12 -15 -42 -52 -69 -82 -26 -30 -52 -62 -59 -71 -10 -13 -24 -1 -96
82 -47 53 -94 106 -105 118 -11 12 -31 33 -44 48 l-24 27 247 0 c210 0 246 -2
239 -14z"/>
<path d="M733 2025 c-65 -28 -84 -108 -38 -163 24 -28 79 -44 268 -76 15 -3
35 -7 45 -10 9 -3 35 -7 57 -11 22 -3 47 -7 55 -10 8 -2 31 -6 50 -9 19 -3
107 -19 195 -36 88 -17 183 -35 210 -40 28 -5 61 -12 75 -15 14 -3 78 -15 144
-26 111 -20 120 -21 153 -5 58 27 77 113 36 158 -27 30 -47 38 -131 53 -42 8
-138 26 -212 40 -74 14 -151 28 -170 31 -19 3 -42 7 -50 9 -8 2 -31 7 -50 10
-19 3 -66 12 -105 20 -38 8 -86 17 -105 20 -19 3 -53 10 -75 15 -22 5 -57 11
-78 14 -21 3 -71 13 -110 20 -114 23 -132 24 -164 11z"/>
<path d="M4035 2019 c-49 -9 -139 -27 -200 -38 -60 -12 -121 -23 -135 -26 -14
-3 -50 -9 -80 -15 -30 -6 -66 -12 -80 -15 -14 -3 -38 -8 -55 -10 -16 -3 -75
-14 -130 -25 -55 -10 -116 -22 -135 -25 -19 -3 -42 -8 -50 -10 -8 -2 -35 -7
-60 -10 -24 -4 -47 -8 -50 -10 -3 -2 -23 -6 -45 -9 -96 -16 -137 -96 -88 -172
27 -41 83 -51 173 -29 3 0 23 4 45 8 22 5 110 21 195 37 345 65 597 112 625
117 91 14 217 44 234 55 39 24 54 94 31 139 -28 52 -78 62 -195 38z"/>
<path d="M734 1590 c-35 -14 -64 -59 -64 -100 0 -71 55 -105 200 -125 8 -1 43
-8 77 -14 35 -7 75 -14 90 -17 16 -2 48 -9 73 -14 25 -5 119 -23 210 -40 156
-29 179 -33 240 -45 14 -3 75 -14 135 -25 61 -11 130 -25 155 -31 67 -15 117
4 143 54 18 34 18 43 7 78 -7 21 -23 45 -34 52 -21 14 -87 31 -156 42 -19 3
-66 12 -105 20 -38 7 -169 32 -290 54 -121 23 -231 44 -245 46 -14 3 -59 12
-100 20 -41 7 -91 16 -110 20 -96 18 -196 35 -200 34 -3 0 -15 -4 -26 -9z"/>
<path d="M3945 1564 c-93 -18 -183 -35 -200 -38 -37 -7 -28 -5 -355 -67 -146
-27 -272 -52 -280 -54 -8 -2 -37 -7 -65 -11 -93 -12 -139 -53 -137 -122 1 -28
9 -44 35 -68 35 -33 58 -36 132 -21 17 4 46 9 65 12 19 3 67 12 105 20 39 8
86 17 105 20 19 3 55 9 80 15 53 11 190 37 240 45 19 3 53 10 75 15 22 5 60
11 85 15 25 3 61 10 80 15 19 5 49 11 65 14 114 19 197 36 212 45 48 25 66 76
48 131 -8 26 -41 59 -59 61 -6 0 -22 2 -36 4 -14 1 -101 -12 -195 -31z"/>
</g>
</svg>
